<mxfile host="app.diagrams.net" modified="2022-03-21T09:18:28.027Z" agent="5.0 (Windows NT 10.0; Win64; x64) AppleWebKit/537.36 (KHTML, like Gecko) Chrome/99.0.4844.74 Safari/537.36 Edg/99.0.1150.46" etag="eGb2ckLogmDDghSYpIvg" version="17.1.3" type="github">
  <diagram id="C5RBs43oDa-KdzZeNtuy" name="Page-1">
    <mxGraphModel dx="1038" dy="539" grid="1" gridSize="10" guides="1" tooltips="1" connect="1" arrows="1" fold="1" page="1" pageScale="1" pageWidth="827" pageHeight="1169" math="0" shadow="0">
      <root>
        <mxCell id="WIyWlLk6GJQsqaUBKTNV-0" />
        <mxCell id="WIyWlLk6GJQsqaUBKTNV-1" parent="WIyWlLk6GJQsqaUBKTNV-0" />
        <mxCell id="ozhC5gt16nq4LNBgOm_c-1" value="E&lt;sub&gt;0&lt;/sub&gt;" style="endArrow=classic;html=1;rounded=0;verticalAlign=bottom;align=center;entryX=0;entryY=0.5;entryDx=0;entryDy=0;spacing=7;" edge="1" parent="WIyWlLk6GJQsqaUBKTNV-1" target="ozhC5gt16nq4LNBgOm_c-3">
          <mxGeometry width="50" height="50" relative="1" as="geometry">
            <mxPoint x="399" y="280" as="sourcePoint" />
            <mxPoint x="389" y="279.5" as="targetPoint" />
          </mxGeometry>
        </mxCell>
        <mxCell id="ozhC5gt16nq4LNBgOm_c-6" value="E" style="edgeStyle=orthogonalEdgeStyle;rounded=0;orthogonalLoop=1;jettySize=auto;html=1;exitX=1;exitY=0.5;exitDx=0;exitDy=0;verticalAlign=bottom;spacing=7;entryX=0;entryY=0.5;entryDx=0;entryDy=0;align=center;" edge="1" parent="WIyWlLk6GJQsqaUBKTNV-1" source="ozhC5gt16nq4LNBgOm_c-3" target="ozhC5gt16nq4LNBgOm_c-8">
          <mxGeometry relative="1" as="geometry">
            <mxPoint x="499" y="280" as="targetPoint" />
          </mxGeometry>
        </mxCell>
        <mxCell id="ozhC5gt16nq4LNBgOm_c-3" value="" style="ellipse;whiteSpace=wrap;html=1;aspect=fixed;verticalAlign=bottom;spacing=7;align=center;" vertex="1" parent="WIyWlLk6GJQsqaUBKTNV-1">
          <mxGeometry x="439" y="270" width="20" height="20" as="geometry" />
        </mxCell>
        <mxCell id="ozhC5gt16nq4LNBgOm_c-11" value="P" style="edgeStyle=orthogonalEdgeStyle;rounded=0;orthogonalLoop=1;jettySize=auto;html=1;exitX=1;exitY=0.5;exitDx=0;exitDy=0;entryX=0;entryY=0.5;entryDx=0;entryDy=0;verticalAlign=bottom;align=center;" edge="1" parent="WIyWlLk6GJQsqaUBKTNV-1" source="ozhC5gt16nq4LNBgOm_c-8" target="ozhC5gt16nq4LNBgOm_c-15">
          <mxGeometry relative="1" as="geometry">
            <mxPoint x="619" y="280" as="targetPoint" />
          </mxGeometry>
        </mxCell>
        <mxCell id="ozhC5gt16nq4LNBgOm_c-8" value="P = x&lt;sub&gt;e&lt;/sub&gt;εE" style="rounded=0;whiteSpace=wrap;html=1;verticalAlign=middle;align=center;" vertex="1" parent="WIyWlLk6GJQsqaUBKTNV-1">
          <mxGeometry x="499" y="265" width="70" height="30" as="geometry" />
        </mxCell>
        <mxCell id="ozhC5gt16nq4LNBgOm_c-16" value="&lt;font size=&quot;1&quot;&gt;q&lt;/font&gt;&lt;span style=&quot;font-size: 8.33333px&quot;&gt;&lt;sup&gt;&#39;&lt;/sup&gt;&lt;/span&gt;" style="edgeStyle=orthogonalEdgeStyle;rounded=0;orthogonalLoop=1;jettySize=auto;html=1;verticalAlign=bottom;align=center;" edge="1" parent="WIyWlLk6GJQsqaUBKTNV-1">
          <mxGeometry relative="1" as="geometry">
            <mxPoint x="750" y="280" as="targetPoint" />
            <mxPoint x="720" y="280" as="sourcePoint" />
          </mxGeometry>
        </mxCell>
        <mxCell id="ozhC5gt16nq4LNBgOm_c-15" value="σ = Pcosθ" style="whiteSpace=wrap;html=1;verticalAlign=middle;align=center;" vertex="1" parent="WIyWlLk6GJQsqaUBKTNV-1">
          <mxGeometry x="659" y="265" width="61" height="30" as="geometry" />
        </mxCell>
        <mxCell id="ozhC5gt16nq4LNBgOm_c-18" value="" style="endArrow=classic;html=1;rounded=0;entryX=0.5;entryY=1;entryDx=0;entryDy=0;verticalAlign=bottom;align=center;" edge="1" parent="WIyWlLk6GJQsqaUBKTNV-1" target="ozhC5gt16nq4LNBgOm_c-3">
          <mxGeometry width="50" height="50" relative="1" as="geometry">
            <mxPoint x="750" y="280" as="sourcePoint" />
            <mxPoint x="410" y="420" as="targetPoint" />
            <Array as="points">
              <mxPoint x="750" y="360" />
              <mxPoint x="600" y="360" />
              <mxPoint x="450" y="360" />
            </Array>
          </mxGeometry>
        </mxCell>
        <mxCell id="ozhC5gt16nq4LNBgOm_c-19" value="E&lt;sup&gt;&#39;&lt;/sup&gt;" style="text;html=1;align=center;verticalAlign=bottom;resizable=0;points=[];autosize=1;strokeColor=none;fillColor=none;" vertex="1" parent="WIyWlLk6GJQsqaUBKTNV-1">
          <mxGeometry x="414" y="300" width="30" height="20" as="geometry" />
        </mxCell>
      </root>
    </mxGraphModel>
  </diagram>
</mxfile>
